/* XPM */
static char *result[] = {
/* columns rows colors chars-per-pixel */
"121 78 42 1 ",
"  c black",
". c #303000",
"X c #202020",
"o c #2C2C2C",
"O c gray22",
"+ c #404000",
"@ c #484800",
"# c #585800",
"$ c #686800",
"% c #707000",
"& c #004040",
"* c #005858",
"= c #006C6C",
"- c #007070",
"; c #007474",
": c #007878",
"> c #007C7C",
", c #484848",
"< c gray33",
"1 c #646464",
"2 c gray44",
"3 c #7C7C7C",
"4 c #848000",
"5 c #949000",
"6 c #9C9800",
"7 c #008484",
"8 c #008C8C",
"9 c #009898",
"0 c #00A4A4",
"q c #20B0B0",
"w c #20B4B4",
"e c #48C0C0",
"r c #74C8C8",
"t c gray55",
"y c #989898",
"u c gray66",
"i c #B4B4B4",
"p c #9CDCDC",
"a c #B8E8E8",
"s c #C0C0C0",
"d c #D0D0D0",
"f c #D8F4F4",
/* pixels */
"OOOOOOOOOOOOOOOOOO:::::::::::::::::::::::::::::::::::::::::::::::::::::::::::::::::::::::::::::::::::::OOOOOOOOOOOOOOOOOO",
"O>>:::::::::::::::::::::::::::::::::888;--qq8888888888;;--qq888888888;;--qq888888888;:::::::::::::::::::::::::::::::::OO ",
"Oqq99998;;--qq888888888;;--qq9988888888;--qq8888888888;;--qq888888888;;--qq888888888;;--qq888888888;;--qq88888888888::OO ",
"Oqqqqqqq>>&&--qqqqqqqqq>>&&--qqqqqqqqqq>&&--qqqqqqqqqq>>&&--wwweeeeqq>>&&--eeeeeeqqq>>&&--qqqqqqqqq>>&&--qq998888988::OO ",
"Oqqqqqqq::>>88qqqqqqqqq::>>88qqqqqqqqqq:>>88qqqqqqqqqq::>>88weerrppqq::>>88eeeeqqqqq::>>88qqqqqqqqq::>>8899888888988::OO ",
"Oqqqqqqq::>>88q*******************************************************************************************9888888988::OO ",
"Oqqqqqqq77************************-----------------------------------------------------**********************8899988::OO ",
"Oqqqqqqqqq>>::---------------------------------------------------------------------------------------------**8899988::OO ",
"O9977aaqppqq888888888888888888888888888888888888888888888888888888888888888888888888888888888888888888888--**9977a88::OO ",
"O>>--77qaaee00000000000000000000000000000000qqqqqqqqwwwwwwwwweewweewweewweewwwwwwwqqqqqq00000000009999988--**>>--788::OO ",
"O>>--77qaaee0000000000000000000000000000qqqqqqqqqqwwwwwwwwwwewweewweewweewwwwwwwwqqqqq0000000000999999988--**>>--788::OO ",
"O::>>88qaarr0000000000000000000000000qqqqqqqqqwwwwwwwweewweeweewweewweewwwwwwwwqqqqq000000000000999999988--**::>>888::OO ",
"O0000qqqaarr0000000000000000000000000qqqqqqqqqwwwwwwwweewweeweewweewweewwwwwwwwqqqqq000000000099009999988--**9900088::OO ",
"Oqqqqqqqaarr000000000000000000000qqqqqqqqqwwwwwwwwwweewweewwewweewweewwwwwwwwqqqqq00qq0000009900999888888--**9900088::OO ",
"Oqqqqqqqaarr000000000000000qqqqqqqqqqqqwwwwwwweewweewweewweeweewweewwwwwwwwqqqqqq0qq000000990099998888888--**9900q88::OO ",
"Oqqqqqqqaarr00000000000qqqqqqqqqqqqwwwwwwwwweewweewweewweewwewweewwwwwwwwqqqqqq00q00000099009999999888888--**0000q88::OO ",
"Oqqqqqqqaarr00000000000qqqqqqqqwwwwwwwwwwweewweewweewweewweeweewwwwwwwwqqqqqq00qq000009900999999999888888--**0000q88::OO ",
"Oqqqqqqqaarr00000000qqqqqqqqqqqwwwwwwwwwwweewweewweewweewweeweewwwwwwwwqqqqqq00qq000009900999999998888888--**00qqq88::OO ",
"O9977aaqaarr0000qqqqqqqqqqqqqwwwwwwwwwwweewweewweewweewweewwewwwwwwwwqqqqqq00qq00000990099999999888888888--**9977a88::OO ",
"O>>--77qaarrqqqqqqqqqqqqqwwwwwwwwwweewwewweewweewweewweewweewwwwwwwqqqqqqqqqq0000000009999999988888778888--**>>--788::OO ",
"O::>>88qaarrqqqqqqqqqqwwwwwwwwwwweewweeweewweewweewweewweewwwwwwwqqwwqqqqqq000000000999999998888888778888--**::>>888::OO ",
"O::>>88qaarrqqqqqqqqqqwwwwwwwwweewweewwewweewweewweewweewwwwwwwqqwwqqqqqq00000000099009999889988888778888--**::>>888::OO ",
"O0000qqqaarrqqqqqqwwwwwwwwwwwwweewweewwewweewweewweewweewwwwwwwqqwwqqqqqq00000000099009999889988887888888--**0000q88::OO ",
"Oqqqqqqqaarrqqwwwwwwwwwwwwwwweewweewweeweewweewweewweewwwwwwwqqwwqqqqqq0000000000900999988998888887888888--**00qqq88::OO ",
"Oqqqqqqqaarrwwwwwwwwwwwwwwweewweewweewwewweewweewweewweewwwwqwwqqqqqq000000000099099998899888888888888888--**00qqq88::OO ",
"Oqqqqqqqaarrwwwwwwwwwwewweewweewweewweeweewweewweewweewwwwqqwqqqqqq00qq0000009900999999988888888778888888--**qqqqq88::OO ",
"Oqqqqqqqaarrwwwwwwwweeweewweewweewweewwewweewweewweewwwwqqwwqqqqq00qq000000000099999998888888877888888888--**qqqqq88::OO ",
"Oqqqqqqqaarrwwwwwwwweeweewweewweewweewwewweewweewweewwwwqqwwqqqqq00qq000000000099999998888888877888888888--**qqqqq88::OO ",
"O9977aaqaarrwwwwwweewwewweewweewweewweeweewweewweewwwwqqwwqqqqq00qq00000000009999999889988887788888889988--**9977a88::OO ",
"O>>--77qaarrwwwweewweeweewweewweewweewwewweewweewwwwqqwwqqqqq00qq0000000000999999988998888778888888888888--**>>--788::OO ",
"O::>>88qaarrwweewweewwewweewweewweewweeweewweewwwwqqwwqqqqqq0qq000000000099999999899888877887788888889988--**::>>888::OO ",
"O::>>88qaarreewweewweeweewweewweewweewwewweewwwwqqwwqqqqqqqqq00000000009900999988988887788778888888998888--**0000088::OO ",
"O0000qqqaarreewweewweeweewweewweewweewwewweewwwwqqwwqqqqqqqqq00000000009900999988988887788778888888998888--**0000088::OO ",
"Oqqqqqqqaarrwweewweewwewweeuudddddddddddddssssqqwwqqqqqqqqqq000000000990099998899888778877888888888889988--**qq00088::OO ",
"Oqqqqwwwaarreewweewweeweeqq331122223333tyyuusswwqqqqqqqqqq00000000099009999999988888887788778888888998888--**0000988::OO ",
"Oqqwwwwwaarrwwee%%5566eqq>>oo11OOuu2233<ddyyiiqqqqqqqqqq0000000009900999999998899888778877888888889889988--**0099788::OO ",
"Owwwwwwwaarree::++##66w00>>oo1111112222333ttiiqqqqqqqq00qq00000990099999999889988877887788778888888999988--**0088>88::OO ",
"Owwwwwwwaarree::++##66w00>>oo1111112222333ttiiqqqqqqqq00qq00000990099999999889988877887788778888888999988--**0088>88::OO ",
"O9977aawaarr77;;..##55r88>>oo111111112223333iiqqqqqq00qq0000000009999999988998888788778877888888889889988--**88::e88::OO ",
"O>>--77waaqq7788..##55e88>>oo111111111122233uuqqqq00qq000000000999999998899888877877887788778888998999988--**>>==:88::OO ",
"O::>>88eaa9977pp..##55e88>>oo<<,,##444462222uuqq00qq00000000099999999889988888888788778877888888889999988--**::>>888::OO ",
"O0000eerrr9977rr..##44e88>>oo,,oo@@    41122uu00qq0000000000900999988998888888877877887788888888998999988--**>>>>988::OO ",
"O0000eerrr9977rr..##44e88>>oo,,oo@@    41122uu00qq0000000000900999988998888888877877887788888888998999988--**>>>>988::OO ",
"Oeerrrrpww9977rr..##44e88>>ooOOoo@@    41111uuqq000000000099099998899889988887788788778877888899889999988--**>>88988::OO ",
"Orrrrpppqq9977rr..##44e88>>oooooo++oooo41111uu00000000009900999999988998888778877877887788888888999999988--**7788088::OO ",
"Orrppppaqq9977ee..##%%e88>>oooooo++++@@#1111uu00000000990099999998899888877887788788778888888899889999988--**7788088::OO ",
"Oppaaaaaqq9977ee..##%%e88>>ooooooooooooo1111yy00000099009999999889988887788778877877888888889988999999988--**8899q88::OO ",
"Orrwwaaaqq9977ee..##%%e88>>ooooooooooooo1111yy00000099009999999889988887788778877877888888889988999999988--**8899q88::OO ",
"Orrwwaafqq9977ee..##$$e88>>oooooooooooo,1111yy00009900999999988998888888877887788788778888888899999999988--**88>>p88::OO ",
"Oqq>>wwaqq997788;;..@@w88>>ooOOOO,,,,<<11111yy00000099999999899888888887788778877877888888889988999999988--**>>-->88::OO ",
"Oqqqqrraww9977::::77www88>>ooOOXX22<<11ott11tt00009900999988988888888778877887788788888888998899999990088--**::>>888::OO ",
"Orrrraapww99777777wwwww88>>ooooOO<<<<<<11111tt00990099998899899888877887788778877888888888889999999999988--**7799088::OO ",
"Offaapppww997788wwwwwww88>>ooooOO<<<<<<11111tt00990099998899899888877887788778877888888888889999999999988--**8899088::OO ",
"Offaapppww997788wwwwwwq88>>ooooooooooooooooo1199009999999988988887788778877887788788888888998899999990088--**8899088::OO ",
"Oaapppprww9999wwwwwwwwq88>>>>>>>>>>>>>>>>>>>9900999999998899888888877887788778877888888899889999999009988--**9900q88::OO ",
"Opppprrrww99wwwwwwwwqqq8888888888888888888000099999999889988888887788778877887788888889988999999999990088--**9900q88::OO ",
"Opprreeeeeqqwwwwwwqqqqqqqqqqqqq00qq0000000009999999988998888888778877887788778888888888899889999999009988--**0000q88::OO ",
"O9977aaeaawwwwwwqqqqqqqqqqqqqqq00qq0000000009999999988998888888778877887788778888888888899889999999990088--**9977a88::OO ",
"O9977aaeaawwwwwwqqqqqqqqqqqqq00qq000000000999999998899888888877887788778877887788888889988999999999990088--**9977a88::OO ",
"O>>--77eaaeewwqqqqqqqqqqqqq00qq00000000099999999889988888888788778877887788778888888998899999999999000088--**>>--788::OO ",
"O::>>88eaarrqqqqqqqqqqqqq00qq00qq000000900999988998899888877877887788778877888888888889988999999990990088--**::>>888::OO ",
"O0000eeeaarrqqqqqqqqqqq00qq00qq00000099099998899889988888888788778877887788888888888998899999999999000088--**0000q88::OO ",
"Oeeeeeewaarrqqqqqqqqqq0qq00qqqq00000099099998899889988888888788778877887788888888888998899999999990990088--**0000q88::OO ",
"Oeeeewwwaarrqqqqqqqqqq0qq00qq0000009900999999988998888888877877887788778877888888899889999999999990990088--**0000q88::OO ",
"Oeeeewwwaarrqqqqqqqq00q00qq000000990099999998899888888887788788778877887788888888888998899999999999000088--**0000q88::OO ",
"Owwwwwwwaarrqqqqqq00qq0qq00qq0099009999999889988888888778877877887788778888888888899889999999999990000088--**0000q88::OO ",
"Owwwwwwwaarrqqqq00qq00q00qq000000999999988998888888877887788788778877888888888888988999999999999009000088--**00qqq88::OO ",
"O9977aawaarrqqqqqq00qq0qq00000090999999988998888888877887788788778877888888888888988999999999999990000088--**9977a88::OO ",
"O>>--77waarrqqqqqq00qq0qq00000099999999899888888887788888877877887788778888888899899889999999999990000088--**>>--788::OO ",
"O>>--77waarrqqqq00qq00q0000009999999988988888888888888887788788778877888888888888988999999999999009000000::**>>--788::OO ",
"O::>>88qaarrrrrrrrrrrrrrrrrrrrrrrrrrrrrrrrrreeeeeewwwwqq0000000qqwweeeeeeeeeeeeeeeeeeeeeeewwwwwwwwwwwwwww>>**::>>888::OO ",
"O0000qqqaaaaaaaaaaaaaaaaaaaaaaaaaaaaaaaaaaaapppppppprrrreeeeerrrrppppppppppppppppppppppppppppppprrrrrrree88>>0000q88::OO ",
"Oqqqqqqqqqqqqqqqqqqqqqqqq000000009aaaaaaaaaapppppppprrrreeeeerrrrppppppppppppppppppppppqqqqqqqqqqqqqqqqqqqqqqqqqqq88::OO ",
"Oqqqqqqq9977aaqqqqqqqqqqq00000000999999999999999887777>>>>>>>>>778888999999999999000qqqqqqqqqqqqqqqqqqqqqqqqqqqqqq88::OO ",
"Oqqqqqqq9977aaqqqqqqqqq9977aa00999999999--ww99887777>>::--99>>>77889999--ww9999990qq9977aaqqqqqqqqq9977aaqqqqqqqqq88::OO ",
"Oqqqqqqq>>--77qqqqqqqqq>>--779999999999>&&--887777>>>>--&&**>77778899>>&&--9999000qq>>--77qqqqqqqqq>>--77qqqqqqqqq88::OO ",
",qqqqqqq::>>88qqqqqqqqq::>>889999999999:>>88887777>>>>----::777889999::>>88999900qqq::>>88qqqqqqqqq::>>88qqqqqqqqq88::,, ",
"<<<<<<<<<<<<<<<<<<<<<<<<<<<<<<<<<<<<999:>>88887777>>>>----::777889999::>>88999900qqq:<<<<<<<<<<<<<<<<<<<<<<<<<<<<<<<<<<<O"
};
