/* XPM */
static char *d816eacd3a114d73bd2941db5a94114beAfdXf4BJxiYOPE4[] = {
/* columns rows colors chars-per-pixel */
"64 64 5 1 ",
"  c None",
". c black",
"X c red",
"o c #FFF200",
"O c white",
/* pixels */
"                                                                ",
"                                                                ",
"                                                                ",
"                                                                ",
"                                                                ",
"                                                                ",
"                                                                ",
"                                                                ",
"                                                                ",
"                                                                ",
"                                                                ",
"                                                                ",
"                                                                ",
"                                                                ",
"                                                                ",
"                                                                ",
"                                                                ",
"                                                                ",
"                                                                ",
"                                                                ",
"                                                                ",
"                                                                ",
"                                                                ",
"                                                                ",
"                                                                ",
"                                                                ",
"                                                                ",
"                                                                ",
"                                                                ",
"                                                                ",
"                                                                ",
"                                                                ",
"                                                                ",
"                                                                ",
"                    XXoooo                                      ",
"                    XXoooo                                      ",
"                        oooooo                                  ",
"                        oooooo                                  ",
"                            oo                                  ",
"                            oo                                  ",
"                            oo                                  ",
"                            oo                                  ",
"                            oo                                  ",
"                            oo                                  ",
"                          ........                              ",
"                          ........                              ",
"                        ............                            ",
"                        ............                            ",
"                      ................                          ",
"                      ................                          ",
"                    ........OO..........                        ",
"                    ........OO..........                        ",
"                  ..........OO....OO......                      ",
"                  ..........OO....OO......                      ",
"                  ..........OO....OO......                      ",
"                  ..........OO....OO......                      ",
"                  ........................                      ",
"                  ........................                      ",
"                    ....................                        ",
"                    ....................                        ",
"                      ................                          ",
"                      ................                          ",
"                        ............                            ",
"                        ............                            "
};
